<svg xmlns="http://www.w3.org/2000/svg" viewBox="0 0 400 300"><g id="_14_book_lover_outline" data-name="#14_book_lover_outline"><path d="M158.26,136.84s-5.55-31.64,0-52.09c3.57-13.14,16.89-24.78,26.25-20.27,0,0,19.15-15.16,41.7-2.63,27.86,15.49,15.39,74.71,15.39,74.71Z" fill="#725858"/><path d="M158.26,137.84a1,1,0,0,1-1-.83c-.22-1.3-5.52-32.09,0-52.52,2.38-8.73,9.12-17.16,16.42-20.49,3.84-1.76,7.51-2,10.68-.67,3.21-2.27,21.46-13.94,42.3-2.35,11.73,6.51,18.18,21.73,18.66,44a157.89,157.89,0,0,1-2.77,31.77,1,1,0,0,1-1,.8l-83.34.28Zm21.83-73.35a13.58,13.58,0,0,0-5.55,1.33c-6.79,3.1-13.09,11-15.32,19.19-4.93,18.18-.93,45.71-.11,50.83l81.67-.28c1.33-7.05,10.12-58.84-15.06-72.84-21.68-12-40.4,2.4-40.59,2.54a1,1,0,0,1-1,.12A9.09,9.09,0,0,0,180.09,64.49Z" fill="#093f68"/><rect x="170.05" y="189.95" width="55.34" height="39.72" fill="#ffbc0e"/><path d="M225.39,230.67H170.05a1,1,0,0,1-1-1V190a1,1,0,0,1,1-1h55.34a1,1,0,0,1,1,1v39.72A1,1,0,0,1,225.39,230.67Zm-54.34-2h53.34V191H171.05Z" fill="#093f68"/><path d="M200.43,240.17s-36.21,5.6-36.86,1,13.59-19.41,32-16.37Z" fill="#ffc9b0"/><path d="M171.65,244c-3.89,0-7-.34-8.2-1.26a2.09,2.09,0,0,1-.87-1.38c-.29-2,1.46-5.13,4.67-8.27,5.9-5.76,16.48-11.21,28.49-9.22a1,1,0,0,1,.79.68l4.86,15.35a1,1,0,0,1-.11.83,1,1,0,0,1-.69.46C198.17,241.53,182,244,171.65,244Zm19-18.55a32.36,32.36,0,0,0-22,9.07c-2.9,2.83-4.25,5.44-4.09,6.56.81,1.3,12.35,1.67,34.57-1.69l-4.32-13.64A27.94,27.94,0,0,0,190.67,225.42Z" fill="#093f68"/><path d="M198.61,237.55,254,226.9A10.84,10.84,0,0,0,260.52,213l-.2-.57a10.86,10.86,0,0,0-13.9-6.52l-58.76,12.76Z" fill="#f56132"/><path d="M198.61,238.55a1,1,0,0,1-.87-.5L186.8,219.18a1,1,0,0,1-.05-.9,1,1,0,0,1,.7-.58L246.15,205a11.86,11.86,0,0,1,15.11,7.14l.2.57a11.84,11.84,0,0,1-7.11,15.17.42.42,0,0,1-.15,0l-55.41,10.65Zm-9.39-19.18,9.9,17.06,54.62-10.49a9.85,9.85,0,0,0,5.84-12.59l-.2-.57a9.87,9.87,0,0,0-12.62-5.92l-.13,0Z" fill="#093f68"/><path d="M209.66,225.54s36.39,4.18,40,5.94c2.55,1.25-22.06,15.69-33.4,10.32-5.85-2.76-10.95-5.08-10.95-5.08Z" fill="#ffc9b0"/><path d="M222.23,244a15.14,15.14,0,0,1-6.44-1.24c-5.77-2.73-10.88-5.06-10.93-5.08a1,1,0,0,1-.52-1.28l4.39-11.18a1,1,0,0,1,1.05-.63c3.74.43,36.67,4.26,40.28,6a1.34,1.34,0,0,1,.57,1.87C249.13,235.55,233.58,244,222.23,244Zm-15.68-7.75c1.7.78,5.71,2.62,10.1,4.7,3.92,1.86,10.34,1.33,18-1.5,6.86-2.5,12.14-5.83,13.69-7.3-4.67-1.33-24.52-3.91-38.08-5.48Z" fill="#093f68"/><path d="M207.43,243l-58.58-14.24a10.83,10.83,0,0,1-7.71-13.26l.15-.59a10.85,10.85,0,0,1,13.27-7.71l57.93,16.7Z" fill="#f56132"/><path d="M207.43,244l-.24,0-58.58-14.24a11.86,11.86,0,0,1-8.44-14.5l.15-.58a11.85,11.85,0,0,1,14.49-8.43l57.95,16.71a1,1,0,0,1,.69,1.21l-5.06,19.11A1,1,0,0,1,207.43,244Zm-55.66-36.17a9.86,9.86,0,0,0-9.51,7.34l-.16.58a9.87,9.87,0,0,0,7,12.05l57.61,14,4.56-17.21-57-16.43A9.78,9.78,0,0,0,151.77,207.81Z" fill="#093f68"/><path d="M181.7,144.14h38.8a12.11,12.11,0,0,1,12.11,12.11v46.07a0,0,0,0,1,0,0h-63a0,0,0,0,1,0,0V156.25A12.11,12.11,0,0,1,181.7,144.14Z" fill="#ffbc0e"/><path d="M232.6,203.31h-63a1,1,0,0,1-1-1V156.25a13.12,13.12,0,0,1,13.1-13.11h38.8a13.11,13.11,0,0,1,13.1,13.11v46.06A1,1,0,0,1,232.6,203.31Zm-62-2h61V156.25a11.12,11.12,0,0,0-11.1-11.11H181.7a11.12,11.12,0,0,0-11.1,11.11Z" fill="#093f68"/><path d="M195.52,140.67h9.76a0,0,0,0,1,0,0v5.61a4.14,4.14,0,0,1-4.14,4.14h-1.47a4.14,4.14,0,0,1-4.14-4.14v-5.61a0,0,0,0,1,0,0Z" fill="#ffc9b0"/><path d="M201.13,151.43h-1.47a5.14,5.14,0,0,1-5.14-5.14v-5.62a1,1,0,0,1,1-1h9.75a1,1,0,0,1,1,1v5.62A5.15,5.15,0,0,1,201.13,151.43Zm-4.61-9.76v4.62a3.14,3.14,0,0,0,3.14,3.14h1.47a3.15,3.15,0,0,0,3.14-3.14v-4.62Z" fill="#093f68"/><ellipse cx="172.51" cy="115.33" rx="9.48" ry="8.17" fill="#ffc9b0"/><path d="M172.51,124.5c-5.78,0-10.48-4.12-10.48-9.17s4.7-9.17,10.48-9.17S183,110.27,183,115.33,178.29,124.5,172.51,124.5Zm0-16.34c-4.67,0-8.48,3.22-8.48,7.17s3.81,7.17,8.48,7.17,8.48-3.22,8.48-7.17S177.19,108.16,172.51,108.16Z" fill="#093f68"/><ellipse cx="227.77" cy="115.33" rx="9.48" ry="8.17" fill="#ffc9b0"/><path d="M227.77,124.5c-5.78,0-10.48-4.12-10.48-9.17s4.7-9.17,10.48-9.17,10.48,4.11,10.48,9.17S233.55,124.5,227.77,124.5Zm0-16.34c-4.67,0-8.48,3.22-8.48,7.17s3.81,7.17,8.48,7.17,8.48-3.22,8.48-7.17S232.45,108.16,227.77,108.16Z" fill="#093f68"/><path d="M200.39,142h0a28.58,28.58,0,0,1-28.58-28.59V100.13c0-6.87,10.48-19.7,17.35-19.7,0,0,14.71,22,39.82,13.52v19.41A28.59,28.59,0,0,1,200.39,142Z" fill="#ffc9b0"/><path d="M200.39,143a29.62,29.62,0,0,1-29.58-29.59V100.13c0-7.31,10.79-20.7,18.35-20.7a1,1,0,0,1,.83.44c.59.87,14.6,21.23,38.67,13.13a1,1,0,0,1,.91.14A1,1,0,0,1,230,94v19.41A29.62,29.62,0,0,1,200.39,143ZM188.67,81.46c-5.62.62-15.86,11.54-15.86,18.67v13.23a27.59,27.59,0,1,0,55.17,0v-18C205.31,102.1,191,84.6,188.67,81.46Z" fill="#093f68"/><circle cx="187.16" cy="109.2" r="2.65" fill="#093f68"/><circle cx="214.46" cy="109.2" r="2.65" fill="#093f68"/><path d="M210.82,122A10.43,10.43,0,0,1,190,122Z" fill="#fff"/><path d="M200.39,133.41A11.45,11.45,0,0,1,189,122a1,1,0,0,1,1-1h20.86a1,1,0,0,1,1,1A11.44,11.44,0,0,1,200.39,133.41ZM191,123a9.43,9.43,0,0,0,18.75,0Z" fill="#093f68"/><path d="M200.26,119.1a17.45,17.45,0,0,1-2.61-.21,1,1,0,0,1-.81-1.16,1,1,0,0,1,1.16-.81,12.59,12.59,0,0,0,3.73.06c0-.88-.93-3.56-2.22-6a1,1,0,0,1,.42-1.35,1,1,0,0,1,1.35.43c.94,1.8,3,6.17,2.25,7.93a1.59,1.59,0,0,1-1.08.91A9.42,9.42,0,0,1,200.26,119.1Z" fill="#093f68"/><path d="M179.94,103.12a2,2,0,0,1,0-4L192.54,99a2.06,2.06,0,0,1,2,2,2,2,0,0,1-2,2l-12.62.16Z" fill="#093f68"/><path d="M222,102.89h0l-12.62-.08a2,2,0,0,1,0-4h0l12.62.08a2,2,0,0,1,0,4Z" fill="#093f68"/><polygon points="263.7 148.93 257.35 145.55 201.1 153.61 144.85 145.55 138.5 148.93 144.85 198.94 201.1 207 257.35 198.94 263.7 148.93" fill="#fff"/><path d="M201.1,208H201l-56.25-8.06a1,1,0,0,1-.85-.86l-6.35-50a1,1,0,0,1,.52-1l6.35-3.38a1,1,0,0,1,.62-.11l56.1,8,56.11-8a1,1,0,0,1,.61.11l6.35,3.38a1,1,0,0,1,.52,1l-6.35,50a1,1,0,0,1-.85.86L201.24,208Zm-55.35-9.94L201.1,206l55.35-7.93,6.17-48.57-5.45-2.9-55.93,8a1.31,1.31,0,0,1-.28,0l-55.92-8-5.46,2.9Z" fill="#093f68"/><polygon points="192.74 217.32 138.5 208.35 138.5 148.93 192.74 157.9 192.74 217.32" fill="#68e1fd"/><path d="M192.74,218.32h-.17l-54.23-9a1,1,0,0,1-.84-1V148.93a1,1,0,0,1,.36-.76,1,1,0,0,1,.81-.23l54.23,9a1,1,0,0,1,.84,1v59.42a1,1,0,0,1-.36.76A1,1,0,0,1,192.74,218.32ZM139.5,207.5l52.24,8.64V158.75l-52.24-8.64Z" fill="#093f68"/><polygon points="263.7 208.35 209.47 217.32 209.47 157.9 263.7 148.93 263.7 208.35" fill="#68e1fd"/><path d="M209.47,218.32a1,1,0,0,1-1-1V157.9a1,1,0,0,1,.83-1l54.24-9a1,1,0,0,1,.8.23,1,1,0,0,1,.36.76v59.42a1,1,0,0,1-.84,1l-54.23,9Zm1-59.57v57.39l52.23-8.64V150.11Zm53.23,49.6h0Z" fill="#093f68"/><rect x="192.74" y="157.9" width="16.73" height="59.42" fill="#68e1fd"/><path d="M209.47,218.32H192.74a1,1,0,0,1-1-1V157.9a1,1,0,0,1,1-1h16.73a1,1,0,0,1,1,1v59.42A1,1,0,0,1,209.47,218.32Zm-15.73-2h14.73V158.9H193.74Z" fill="#093f68"/><polygon points="220.37 166.91 220.37 183.13 255.63 176.56 255.63 160.77 220.37 166.91" fill="#68e1fd"/><path d="M220.37,184.12a1,1,0,0,1-.64-.23,1,1,0,0,1-.36-.77V166.91a1,1,0,0,1,.83-1l35.26-6.13a1,1,0,0,1,1.17,1v15.79a1,1,0,0,1-.81,1l-35.27,6.57Zm1-16.37v14.17l33.26-6.19V162Z" fill="#093f68"/><line x1="201.1" y1="153.61" x2="201.1" y2="157.9" fill="#093f68"/><path d="M201.1,158.9a1,1,0,0,1-1-1v-4.29a1,1,0,0,1,2,0v4.29A1,1,0,0,1,201.1,158.9Z" fill="#093f68"/><path d="M186,211.38l-.19,0-10.61-2a1,1,0,1,1,.37-2l10.61,2a1,1,0,0,1-.18,2Z" fill="#093f68"/><rect x="132.89" y="194.45" width="12.13" height="5.33" rx="2.16" transform="translate(-28.17 23.24) rotate(-8.68)" fill="#ffc9b0"/><path d="M135.17,201.37a3.17,3.17,0,0,1-3.12-2.69l-.16-1a3.17,3.17,0,0,1,2.65-3.61l7.72-1.18h0a3.17,3.17,0,0,1,3.6,2.65l.16,1a3.18,3.18,0,0,1-.58,2.35,3.12,3.12,0,0,1-2.07,1.25l-7.72,1.18A2.59,2.59,0,0,1,135.17,201.37Zm7.39-6.49-7.71,1.18a1.16,1.16,0,0,0-1,1.32l.15,1a1.17,1.17,0,0,0,1.33,1l7.71-1.17a1.17,1.17,0,0,0,.77-.47,1.14,1.14,0,0,0,.21-.86l-.15-1a1.18,1.18,0,0,0-1.33-1Z" fill="#093f68"/><rect x="131.92" y="188.11" width="12.13" height="5.33" rx="2.16" transform="translate(-27.22 23.02) rotate(-8.68)" fill="#ffc9b0"/><path d="M134.2,195a3.17,3.17,0,0,1-3.12-2.69l-.15-1a3.16,3.16,0,0,1,2.65-3.61l7.71-1.18h0a3.18,3.18,0,0,1,3.61,2.65l.15,1a3.17,3.17,0,0,1-2.65,3.6L134.68,195A2.59,2.59,0,0,1,134.2,195Zm7.39-6.49-7.71,1.18a1.15,1.15,0,0,0-.76.46,1.16,1.16,0,0,0-.22.86l.15,1a1.19,1.19,0,0,0,1.33,1l7.72-1.18a1.17,1.17,0,0,0,1-1.33l-.15-1a1.18,1.18,0,0,0-1.33-1Z" fill="#093f68"/><rect x="130.95" y="181.77" width="12.13" height="5.33" rx="2.16" transform="matrix(0.99, -0.15, 0.15, 0.99, -26.28, 22.8)" fill="#ffc9b0"/><path d="M133.23,188.69a3.17,3.17,0,0,1-3.12-2.69l-.15-1a3.18,3.18,0,0,1,2.65-3.61l7.71-1.18a3.17,3.17,0,0,1,2.35.58,3.13,3.13,0,0,1,1.26,2.07l.15,1a3.18,3.18,0,0,1-2.65,3.61l-7.72,1.17A2.59,2.59,0,0,1,133.23,188.69Zm7.57-6.5h-.17l-7.72,1.18a1.15,1.15,0,0,0-.76.46,1.17,1.17,0,0,0-.22.87l.16,1a1.16,1.16,0,0,0,1.32,1l7.72-1.18a1.17,1.17,0,0,0,1-1.33l-.15-1a1.15,1.15,0,0,0-1.15-1Zm-.33-1h0Z" fill="#093f68"/><rect x="129.98" y="175.43" width="12.13" height="5.33" rx="2.16" transform="translate(-25.33 22.58) rotate(-8.68)" fill="#ffc9b0"/><path d="M132.27,182.35a3.17,3.17,0,0,1-3.13-2.68l-.15-1a3.18,3.18,0,0,1,2.65-3.61l7.71-1.17h0a3.14,3.14,0,0,1,3.61,2.65l.15,1a3.16,3.16,0,0,1-2.65,3.61l-7.71,1.17A2.74,2.74,0,0,1,132.27,182.35Zm7.56-6.5h-.17L131.94,177a1.17,1.17,0,0,0-1,1.33l.15,1a1.17,1.17,0,0,0,1.32,1l7.72-1.18a1.17,1.17,0,0,0,1-1.33l-.15-1a1.11,1.11,0,0,0-.46-.76A1.14,1.14,0,0,0,139.83,175.85Zm-.32-1h0Z" fill="#093f68"/><rect x="257.32" y="194.45" width="12.13" height="5.33" rx="2.16" transform="matrix(-0.99, -0.15, 0.15, -0.99, 493.99, 431.74)" fill="#ffc9b0"/><path d="M267.17,201.37a2.59,2.59,0,0,1-.48,0L259,200.15a3.12,3.12,0,0,1-2.07-1.25,3.18,3.18,0,0,1-.58-2.35l.16-1a3.17,3.17,0,0,1,3.6-2.65h0l7.72,1.18a3.16,3.16,0,0,1,2.07,1.25,3.21,3.21,0,0,1,.58,2.36l-.16,1a3.17,3.17,0,0,1-3.12,2.69Zm-7.57-6.5a1.17,1.17,0,0,0-1.15,1l-.15,1a1.14,1.14,0,0,0,.21.86,1.17,1.17,0,0,0,.76.47l7.72,1.17a1.13,1.13,0,0,0,.87-.21,1.15,1.15,0,0,0,.46-.76l.15-1a1.16,1.16,0,0,0-1-1.32l-7.72-1.18Z" fill="#093f68"/><rect x="258.29" y="188.11" width="12.13" height="5.33" rx="2.16" transform="translate(496.87 419.28) rotate(-171.32)" fill="#ffc9b0"/><path d="M268.14,195a2.59,2.59,0,0,1-.48,0l-7.72-1.18a3.17,3.17,0,0,1-2.65-3.6l.15-1a3.19,3.19,0,0,1,3.61-2.65h0l7.71,1.18a3.16,3.16,0,0,1,2.65,3.61l-.15,1A3.17,3.17,0,0,1,268.14,195Zm-7.57-6.5a1.17,1.17,0,0,0-1.15,1l-.15,1a1.17,1.17,0,0,0,1,1.33L268,193a1.18,1.18,0,0,0,1.33-1l.15-1a1.17,1.17,0,0,0-1-1.32l-7.71-1.18Z" fill="#093f68"/><rect x="259.25" y="181.77" width="12.13" height="5.33" rx="2.16" transform="translate(499.75 406.82) rotate(-171.32)" fill="#ffc9b0"/><path d="M269.11,188.69a2.77,2.77,0,0,1-.49,0l-7.71-1.17a3.18,3.18,0,0,1-2.65-3.61l.15-1a3.13,3.13,0,0,1,1.26-2.07,3.17,3.17,0,0,1,2.35-.58l7.71,1.18a3.16,3.16,0,0,1,2.65,3.61l-.15,1a3.14,3.14,0,0,1-3.12,2.69Zm-7.57-6.5a1.15,1.15,0,0,0-1.15,1l-.15,1a1.17,1.17,0,0,0,1,1.33l7.72,1.18a1.17,1.17,0,0,0,1.32-1l.16-1a1.17,1.17,0,0,0-1-1.33l-7.72-1.18h-.17Z" fill="#093f68"/><rect x="260.22" y="175.43" width="12.13" height="5.33" rx="2.16" transform="translate(502.64 394.36) rotate(-171.32)" fill="#ffc9b0"/><path d="M270.07,182.35a2.67,2.67,0,0,1-.48,0l-7.71-1.17a3.16,3.16,0,0,1-2.65-3.61l.15-1a3.14,3.14,0,0,1,3.6-2.65l7.72,1.17a3.18,3.18,0,0,1,2.65,3.61l-.15,1A3.17,3.17,0,0,1,270.07,182.35Zm-7.57-6.5a1.14,1.14,0,0,0-.68.23,1.11,1.11,0,0,0-.46.76l-.16,1a1.17,1.17,0,0,0,1,1.33l7.72,1.18a1.17,1.17,0,0,0,1.32-1l.15-1a1.17,1.17,0,0,0-1-1.33l-7.72-1.18h-.18Z" fill="#093f68"/><path d="M136.44,88.79H114.61a11,11,0,0,0-11,11v8.65a11,11,0,0,0,11,11h14.3l7.21,10.22V119.4h.32a11,11,0,0,0,11-11V99.77A11,11,0,0,0,136.44,88.79Z" fill="#fff"/><path d="M136.12,130.62a1,1,0,0,1-.82-.43l-6.91-9.79H114.61a12,12,0,0,1-12-12V99.77a12,12,0,0,1,12-12h21.83a12,12,0,0,1,12,12v8.65a12,12,0,0,1-11.3,12v9.24a1,1,0,0,1-.7.95A1,1,0,0,1,136.12,130.62ZM114.61,89.79a10,10,0,0,0-10,10v8.65a10,10,0,0,0,10,10h14.3a1,1,0,0,1,.81.42l5.4,7.64V119.4a1,1,0,0,1,1-1h.32a10,10,0,0,0,10-10V99.77a10,10,0,0,0-10-10Z" fill="#093f68"/><g id="sF2efm"><path d="M125.53,112.79c-.43-.4-.84-.79-1.27-1.17q-1.77-1.58-3.57-3.14c-.79-.7-1.58-1.4-2.3-2.17a8,8,0,0,1-1.55-2.34,6.84,6.84,0,0,1-.48-1.84,8.91,8.91,0,0,1-.08-1.71,4.62,4.62,0,0,1,3.13-4.27,4.84,4.84,0,0,1,5.18,1.24,5.51,5.51,0,0,1,.88,1.11s0,0,.06.09a.41.41,0,0,1,.07-.11,5.64,5.64,0,0,1,2.2-2.08,4.86,4.86,0,0,1,2.6-.51,4.62,4.62,0,0,1,2.72,1.1,4.56,4.56,0,0,1,1.59,2.81,7.62,7.62,0,0,1,0,1.72,8.57,8.57,0,0,1-.31,1.81,7.13,7.13,0,0,1-1.33,2.45,18.9,18.9,0,0,1-2,2.06c-1.09,1-2.2,1.91-3.28,2.88-.75.66-1.47,1.34-2.21,2Z" fill="#f56132"/><path d="M125.5,113.76a1,1,0,0,1-.65-.24l-.41-.38c-.28-.26-.55-.52-.84-.77l-2.82-2.48-.75-.66a31.19,31.19,0,0,1-2.37-2.25,8.93,8.93,0,0,1-1.75-2.63,8.43,8.43,0,0,1-.54-2.09,10,10,0,0,1-.09-1.88,5.62,5.62,0,0,1,3.82-5.18,5.85,5.85,0,0,1,6.19,1.47l.24.25a6.12,6.12,0,0,1,1.82-1.4,5.85,5.85,0,0,1,6.42.71,5.55,5.55,0,0,1,1.93,3.4,8.09,8.09,0,0,1,.05,2,8.7,8.7,0,0,1-.35,2,7.75,7.75,0,0,1-1.51,2.8,18.57,18.57,0,0,1-2.15,2.18l-1.49,1.3-1.79,1.57L127,112.84l-.68.63A1.15,1.15,0,0,1,125.5,113.76Zm-4.4-16.89a4.64,4.64,0,0,0-1.38.23,3.62,3.62,0,0,0-2.44,3.36,9,9,0,0,0,.07,1.54,6.28,6.28,0,0,0,.41,1.59,7,7,0,0,0,1.37,2,29.78,29.78,0,0,0,2.22,2.09l.75.66,2.83,2.49.6.55.06,0c.51-.47,1-.94,1.54-1.4s1.2-1.06,1.81-1.58l1.47-1.3a16.09,16.09,0,0,0,1.93-1.94,6.1,6.1,0,0,0,1.15-2.11,7.66,7.66,0,0,0,.27-1.58,6.64,6.64,0,0,0,0-1.48,3.65,3.65,0,0,0-3.41-3.09,3.74,3.74,0,0,0-2.06.4A4.67,4.67,0,0,0,126.44,99a1.1,1.1,0,0,1-.87.52,1,1,0,0,1-.88-.4l.75-.6h0l-.81.51a4.67,4.67,0,0,0-.72-.92A4,4,0,0,0,121.1,96.87Z" fill="#093f68"/></g><path d="M278.08,229.62s-6.82-13.9-5.87-23.3a17.41,17.41,0,0,1,8.13,9.81c4,11.19,3.1,13.5,3.1,13.5Z" fill="#70cc40"/><path d="M283.44,230.63h-5.36a1,1,0,0,1-.9-.56c-.28-.58-6.93-14.27-6-23.84a1,1,0,0,1,1.41-.81c.24.11,5.9,2.75,8.66,10.38,4,11,3.27,13.77,3.09,14.21A1,1,0,0,1,283.44,230.63Zm-4.73-2h3.84c0-1.25-.42-4.59-3.15-12.16a17.48,17.48,0,0,0-6.28-8.43C273.05,215.87,277.56,226.13,278.71,228.62Z" fill="#093f68"/><path d="M281.32,229s-5.12-19.83,2.24-33.1c0,0,4.24,4.85,5.26,16.59a29.66,29.66,0,0,1-3.07,16.21Z" fill="#70cc40"/><path d="M281.32,230a1,1,0,0,1-1-.75c-.21-.83-5.13-20.37,2.34-33.83a1,1,0,0,1,.77-.51,1,1,0,0,1,.86.34c.18.2,4.46,5.23,5.49,17.15a30.48,30.48,0,0,1-3.19,16.81,1,1,0,0,1-.8.49l-4.43.29Zm2.37-32.14c-5.26,11.2-2.39,26.44-1.59,30.08l3-.2a29.5,29.5,0,0,0,2.69-15.16C287.13,204.61,284.93,199.9,283.69,197.81Z" fill="#093f68"/><path d="M283.53,228.33s1.59-13.24,12.29-21.87c0,0,3.15,9.85-5.69,23Z" fill="#70cc40"/><path d="M290.13,230.49H290l-6.6-1.17a1,1,0,0,1-.82-1.1c.07-.56,1.76-13.74,12.65-22.53a1,1,0,0,1,.91-.18,1,1,0,0,1,.67.65c.13.42,3.2,10.47-5.81,23.9A1,1,0,0,1,290.13,230.49Zm-5.45-3,5,.88c6.07-9.34,5.94-16.92,5.51-20.06C287.56,215.23,285.25,224.56,284.68,227.51Z" fill="#093f68"/><polygon points="290.86 243.19 277.4 243.19 275.41 226.81 292.85 226.81 290.86 243.19" fill="#fff"/><path d="M290.86,244.19H277.4a1,1,0,0,1-1-.88l-2-16.38a1,1,0,0,1,.25-.79,1,1,0,0,1,.75-.33h17.44a1,1,0,0,1,.75.33,1,1,0,0,1,.24.79l-2,16.38A1,1,0,0,1,290.86,244.19Zm-12.57-2H290l1.75-14.38H276.54Z" fill="#093f68"/></g></svg>